<svg width="72" height="72" viewBox="0 0 72 72" fill="none" xmlns="http://www.w3.org/2000/svg">
<path d="M39.7144 50.1074H30.9619C29.1844 50.1074 27.7219 51.5474 27.7444 53.3249V62.0774C27.7444 63.8549 29.1844 65.2949 30.9619 65.2949H31.5199C31.8992 65.9712 32.4519 66.5342 33.121 66.9261C33.7901 67.318 34.5515 67.5245 35.3269 67.5245C36.1023 67.5245 36.8637 67.318 37.5328 66.9261C38.2019 66.5342 38.7546 65.9712 39.1339 65.2949H39.7144C41.4919 65.2949 42.9319 63.8549 42.9319 62.0774V53.3249C42.9319 51.5474 41.4919 50.1074 39.7144 50.1074Z" fill="#9B9B9B"/>
<path d="M40.8625 52.0425C41.4025 52.0425 41.83 51.6375 41.875 51.12C42.0325 49.185 42.865 44.4825 47.41 39.4425C49.5791 37.7354 51.3608 35.5868 52.6369 33.1392C53.9131 30.6916 54.6547 28.0008 54.8125 25.245C54.8575 24.705 54.88 24.345 54.88 24.12V23.895C54.745 13.14 46.0375 4.5 35.305 4.5C30.1543 4.49972 25.2114 6.53189 21.5504 10.155C17.8894 13.7781 15.8058 18.6995 15.7525 23.85C15.7525 23.85 15.73 24.39 15.82 25.29C16.18 31.005 18.97 36.0675 23.2225 39.42C27.7675 44.4825 28.6675 49.185 28.825 51.12C28.87 51.6375 29.2975 52.0425 29.8375 52.0425H40.8625Z" fill="#FCD53F"/>
<path d="M35.3267 24.0752C38.9717 24.0752 41.9417 27.0227 41.9867 30.6677V30.8477C41.9867 30.9152 41.9867 31.0052 41.9642 31.1402C41.8517 33.0302 40.9292 34.8077 39.4442 35.9777L39.2867 36.0902L39.1517 36.2252C36.6767 38.9702 36.1592 45.9452 36.0692 49.7702H34.6067C34.4942 45.9452 33.9542 38.9702 31.4792 36.2252L31.3442 36.0902L31.1867 35.9777C30.4435 35.39 29.8343 34.6504 29.3997 33.8084C28.9652 32.9665 28.7153 32.0415 28.6667 31.0952C28.6667 31.0052 28.6442 30.9377 28.6442 30.8927V30.6902C28.7117 27.0452 31.7042 24.0752 35.3267 24.0752ZM35.3267 21.8252C33.4752 21.8259 31.6699 22.4033 30.1617 23.4773C28.6535 24.5512 27.5173 26.0683 26.9111 27.8178C26.3048 29.5672 26.2587 31.4621 26.7789 33.239C27.2992 35.0158 28.3601 36.5865 29.8142 37.7327C32.5142 40.7477 32.3792 52.0427 32.3792 52.0427H38.3192C38.3192 52.0427 38.1392 40.7477 40.8617 37.7552C42.7967 36.2252 44.0792 33.9077 44.2367 31.2752C44.2592 31.0277 44.2592 30.8702 44.2592 30.7577V30.6677C44.2355 28.3143 43.2839 26.0653 41.6113 24.4096C39.9387 22.7538 37.6802 21.8251 35.3267 21.8252Z" fill="#FFB02E"/>
<path d="M43.1251 56.369C43.2708 56.3436 43.41 56.2898 43.5349 56.2106C43.6597 56.1313 43.7678 56.0283 43.8528 55.9073C43.9378 55.7863 43.9982 55.6498 44.0305 55.5055C44.0628 55.3612 44.0663 55.212 44.0409 55.0663C44.0155 54.9206 43.9616 54.7814 43.8824 54.6565C43.8032 54.5317 43.7001 54.4236 43.5792 54.3386C43.4582 54.2536 43.3217 54.1932 43.1773 54.1609C43.033 54.1287 42.8838 54.1251 42.7381 54.1505L27.5731 56.8055C27.4275 56.831 27.2882 56.8848 27.1634 56.964C27.0385 57.0432 26.9305 57.1463 26.8454 57.2673C26.7604 57.3882 26.7 57.5248 26.6678 57.6691C26.6355 57.8134 26.632 57.9626 26.6574 58.1083C26.6828 58.254 26.7366 58.3932 26.8159 58.5181C26.8951 58.6429 26.9981 58.7509 27.1191 58.836C27.2401 58.921 27.3766 58.9814 27.5209 59.0137C27.6652 59.0459 27.8145 59.0495 27.9601 59.024L43.1251 56.369ZM43.0126 61.2065C43.3032 61.1517 43.5604 60.9846 43.7287 60.7415C43.8971 60.4984 43.9629 60.1988 43.912 59.9076C43.8612 59.6163 43.6977 59.3568 43.457 59.1851C43.2162 59.0134 42.9176 58.9435 42.6256 58.9903L27.6631 61.6228C27.5127 61.6427 27.3678 61.6928 27.2372 61.7702C27.1066 61.8475 26.993 61.9505 26.9033 62.0729C26.8135 62.1953 26.7495 62.3346 26.715 62.4824C26.6805 62.6302 26.6763 62.7834 26.7025 62.9329C26.7288 63.0824 26.7851 63.225 26.8679 63.3522C26.9508 63.4793 27.0585 63.5884 27.1846 63.6729C27.3107 63.7573 27.4526 63.8154 27.6017 63.8435C27.7509 63.8717 27.9042 63.8694 28.0524 63.8368L43.0126 61.2065Z" fill="#D3D3D3"/>
<path d="M31.0291 12.2402C28.5316 16.5602 29.7916 21.9602 33.8416 24.2777C37.8916 26.5952 43.1791 24.9977 45.6766 20.6777C48.1741 16.3577 46.9141 10.9577 42.8641 8.64024C38.8141 6.32274 33.5266 7.92024 31.0291 12.2402Z" fill="#FFF478"/>
</svg>
