<svg width="151" height="51" viewBox="0 0 151 51" fill="none" xmlns="http://www.w3.org/2000/svg">
<path d="M24.4832 41.854V36.0133H16.9941H9.53924C9.53924 36.0133 8.24067 35.9607 7.75946 35.8852C7.2445 35.8043 6.83391 35.7313 6.49604 35.4624C6.15817 35.1936 6.13701 34.667 6.13701 34.667L6.0122 33.8143V32.4744V21.5112V10.6695C6.0122 10.6695 5.99331 9.72666 6.0122 9.20082C6.0311 8.67497 6.0122 8.14736 6.0122 7.62964C6.0122 7.12339 5.92666 6.60843 6.32475 6.28451C6.72283 5.96059 6.94089 6.0243 7.62422 6.0243H9.50505H24.4832V0.0720298L8.47914 0.0129468C8.47914 0.0129468 6.39313 -0.0467142 5.05947 0.0901078C4.25757 0.172376 3.80639 0.287054 3.07605 0.661889C2.22462 1.09887 1.77851 1.47418 1.19522 2.23302C0.686166 2.89529 0.442893 3.27115 0.237707 4.14576C-0.165973 5.86646 0.0667364 9.20082 0.0667364 9.20082V21.8044V29.5578V33.4516V35.3985V36.4232L0.100933 36.9697L0.13513 37.2088L0.169327 37.3795C0.169327 37.3795 0.409094 38.4146 0.819062 39.0873C1.29782 39.8729 1.63979 40.2487 2.35792 40.7952C2.83782 41.1604 3.16124 41.2999 3.72579 41.5124C4.20455 41.6927 4.95688 41.7856 4.95688 41.7856L7.24806 41.854L9.53924 41.854H14.8739H24.4832Z" fill="#3E7DFC"/>
<path d="M10.395 32.9948H16.365V15.1616H26.9834H28.4392C28.4392 15.1616 28.9119 15.1433 29.1833 15.2594C29.4107 15.3567 29.5299 15.4496 29.7009 15.6355C30.0815 16.0489 30.1418 17.0371 30.1418 17.0371V18.5584V30.1388V41.7192C30.1418 41.7192 30.1418 42.9499 30.0892 43.6678C30.0441 44.2822 29.987 44.4527 29.6362 44.6934C29.3679 44.8774 29.0242 44.8301 28.8274 44.8301H28.2451H27.5981H10.395V50.9494H30.1418C30.1418 50.9494 31.8106 50.9769 32.7823 50.5855C33.5152 50.2902 33.9499 50.0797 34.5044 49.4936C35.059 48.9076 35.292 48.4609 35.5377 47.6739C35.7086 47.1266 35.7673 46.2181 35.7673 46.2181V42.0934V14.3124C35.7673 13.5362 35.6537 13.0373 35.2978 12.2169C35.2978 12.2169 35.0945 11.8398 34.8198 11.421C34.6318 11.1345 34.2025 10.5921 33.973 10.3952L33.9715 10.394C33.3747 9.88213 33.2566 9.78088 32.5527 9.45977L32.5361 9.45221C32.2495 9.32144 32.0812 9.24461 31.7715 9.17435C31.4548 9.1025 30.9454 9.09583 30.9454 9.09583H28.7641H10.395V32.9948Z" fill="#3E7DFC"/>
<path d="M56.4107 28.7226C54.8256 28.7226 53.4387 28.3594 52.2499 27.6329C51.0776 26.9064 50.1695 25.8745 49.5255 24.537C48.8816 23.1831 48.5596 21.6063 48.5596 19.8066C48.5596 17.9903 48.8816 16.4135 49.5255 15.0761C50.1695 13.7387 51.0859 12.7067 52.2747 11.9802C53.4635 11.2537 54.8587 10.8905 56.4603 10.8905C57.7977 10.8905 58.97 11.1464 59.9772 11.6583C60.9843 12.1701 61.7274 12.8884 62.2062 13.813L60.423 15.4228C59.5314 14.0854 58.2187 13.4167 56.485 13.4167C54.9495 13.4167 53.7689 13.9698 52.9434 15.0761C52.1178 16.1658 51.705 17.7427 51.705 19.8066C51.705 21.854 52.1095 23.4308 52.9186 24.537C53.7277 25.6433 54.8834 26.1964 56.386 26.1964C58.2187 26.1964 59.5644 25.5195 60.423 24.1655L62.2062 25.7754C61.7274 26.7165 60.9843 27.443 59.9772 27.9549C58.97 28.4667 57.7812 28.7226 56.4107 28.7226ZM71.7761 28.7226C70.2075 28.7226 68.8453 28.3677 67.6895 27.6577C66.5337 26.9312 65.6504 25.8992 65.0395 24.5618C64.4286 23.2244 64.1231 21.6393 64.1231 19.8066C64.1231 17.9738 64.4286 16.3887 65.0395 15.0513C65.6504 13.7139 66.5337 12.6902 67.6895 11.9802C68.8453 11.2537 70.2075 10.8905 71.7761 10.8905C73.3446 10.8905 74.6986 11.2537 75.8378 11.9802C76.9936 12.6902 77.877 13.7139 78.4879 15.0513C79.0988 16.3887 79.4043 17.9738 79.4043 19.8066C79.4043 21.6393 79.0988 23.2244 78.4879 24.5618C77.877 25.8992 76.9936 26.9312 75.8378 27.6577C74.6986 28.3677 73.3446 28.7226 71.7761 28.7226ZM71.7761 26.2212C73.163 26.2212 74.2527 25.6516 75.0453 24.5123C75.8543 23.373 76.2589 21.8044 76.2589 19.8066C76.2589 17.8087 75.8543 16.2401 75.0453 15.1009C74.2527 13.9451 73.163 13.3672 71.7761 13.3672C70.3726 13.3672 69.2663 13.9451 68.4573 15.1009C67.6648 16.2401 67.2685 17.8087 67.2685 19.8066C67.2685 21.8044 67.6648 23.373 68.4573 24.5123C69.2663 25.6516 70.3726 26.2212 71.7761 26.2212ZM82.4918 11.1382H88.4358C90.7639 11.1382 92.5141 11.8399 93.6864 13.2433C94.8752 14.6303 95.4696 16.7025 95.4696 19.4598C95.4696 21.6063 95.2055 23.34 94.6771 24.6609C94.1487 25.9818 93.3232 26.9477 92.2004 27.5586C91.0776 28.1695 89.5999 28.475 87.7671 28.475H82.4918V11.1382ZM88.1386 25.9488C89.6412 25.9488 90.7144 25.4452 91.3583 24.438C92.0188 23.4308 92.349 21.7714 92.349 19.4598C92.349 17.4289 92.027 15.9594 91.3831 15.0513C90.7557 14.1267 89.7485 13.6644 88.3615 13.6644H85.6124V25.9488H88.1386ZM98.7325 11.1382H109.853V13.6644H101.853V18.0977H109.011V20.6239H101.853V25.9488H109.853V28.475H98.7325V11.1382ZM113.207 11.1382H116.352V25.9488H124.575V28.475H113.207V11.1382ZM128.057 11.1382H131.202V28.475H128.057V11.1382ZM140.106 19.5837L134.979 11.1382H138.52L141.938 17.1317L145.331 11.1382H148.898L143.746 19.5837L149.121 28.475H145.629L141.938 22.1842L138.248 28.475H134.731L140.106 19.5837Z" fill="#323232"/>
<path d="M49.1519 38.16H50.4791V45.475H49.1519V38.16ZM54.037 39.1423H51.8321V38.16H57.5587V39.1423H55.3537V45.475H54.037V39.1423ZM63.446 45.5795C62.9235 45.5795 62.4428 45.4715 62.0039 45.2555C61.572 45.0396 61.2202 44.733 60.9485 44.3359L61.7322 43.5835C61.9552 43.8552 62.2269 44.0782 62.5473 44.2523C62.8748 44.4265 63.1883 44.5136 63.4878 44.5136C63.8431 44.5136 64.1253 44.43 64.3343 44.2628C64.5503 44.0956 64.6582 43.8761 64.6582 43.6044C64.6582 43.4094 64.6234 43.2491 64.5537 43.1237C64.4841 42.9914 64.3552 42.8625 64.1671 42.7371C63.979 42.6047 63.6899 42.441 63.2997 42.2459C62.7842 41.9951 62.3767 41.7583 62.0771 41.5353C61.7775 41.3124 61.5581 41.0755 61.4187 40.8247C61.2794 40.5739 61.2097 40.2848 61.2097 39.9574C61.2097 39.5812 61.3073 39.2503 61.5023 38.9646C61.7044 38.672 61.983 38.4491 62.3383 38.2958C62.6936 38.1356 63.1047 38.0555 63.5714 38.0555C64.08 38.0555 64.5328 38.1565 64.9299 38.3585C65.334 38.5606 65.6301 38.8357 65.8182 39.1841L64.9717 39.8111C64.8045 39.5951 64.6025 39.4279 64.3656 39.3095C64.1357 39.1841 63.8884 39.1214 63.6237 39.1214C63.2823 39.1214 63.0141 39.1945 62.819 39.3408C62.6309 39.4802 62.5369 39.6787 62.5369 39.9365C62.5369 40.0967 62.5787 40.236 62.6623 40.3545C62.7529 40.4659 62.9096 40.5913 63.1325 40.7307C63.3624 40.87 63.7108 41.0511 64.1775 41.2741C64.8394 41.5876 65.3027 41.915 65.5674 42.2564C65.8391 42.5908 65.9749 43.0123 65.9749 43.5208C65.9749 43.9319 65.8704 44.2941 65.6614 44.6076C65.4524 44.9142 65.1564 45.1545 64.7732 45.3287C64.39 45.4959 63.9476 45.5795 63.446 45.5795ZM69.5065 45.5795C68.6844 45.5795 68.0365 45.3391 67.5628 44.8584C67.096 44.3708 66.8626 43.7054 66.8626 42.8625C66.8626 42.0195 67.096 41.3577 67.5628 40.877C68.0365 40.3893 68.6844 40.1455 69.5065 40.1455C70.3285 40.1455 70.973 40.3893 71.4397 40.877C71.9135 41.3577 72.1503 42.0195 72.1503 42.8625C72.1503 43.7054 71.9135 44.3708 71.4397 44.8584C70.973 45.3391 70.3285 45.5795 69.5065 45.5795ZM69.5065 44.6912C69.9593 44.6912 70.3146 44.531 70.5724 44.2105C70.8301 43.8831 70.959 43.4337 70.959 42.8625C70.959 42.2912 70.8301 41.8453 70.5724 41.5249C70.3146 41.1974 69.9593 41.0337 69.5065 41.0337C69.0536 41.0337 68.6983 41.1974 68.4406 41.5249C68.1828 41.8453 68.0539 42.2912 68.0539 42.8625C68.0539 43.4337 68.1828 43.8831 68.4406 44.2105C68.6983 44.531 69.0536 44.6912 69.5065 44.6912ZM74.6402 45.5795C74.2152 45.5795 73.8913 45.4645 73.6683 45.2346C73.4524 44.9978 73.3444 44.6529 73.3444 44.2001V37.7211H74.5357V44.2105C74.5357 44.3986 74.574 44.5345 74.6506 44.6181C74.7273 44.6947 74.8527 44.733 75.0268 44.733C75.201 44.733 75.3926 44.6877 75.6016 44.5972L75.7792 45.2555C75.4797 45.4715 75.1 45.5795 74.6402 45.5795ZM78.4006 45.5795C77.8015 45.5795 77.3487 45.3809 77.0421 44.9838C76.7356 44.5867 76.5823 43.998 76.5823 43.2178V40.25H77.7632V43.2282C77.7632 43.702 77.8433 44.0538 78.0035 44.2837C78.1638 44.5066 78.4111 44.6181 78.7455 44.6181C79.1426 44.6181 79.4665 44.4683 79.7173 44.1687C79.9751 43.8692 80.104 43.4964 80.104 43.0506V40.25H81.2848V44.221C81.2848 44.6041 81.3162 45.0221 81.3789 45.475H80.2607C80.198 45.1406 80.1667 44.834 80.1667 44.5554H80.1353C79.996 44.8689 79.7696 45.1197 79.4561 45.3078C79.1496 45.4889 78.7977 45.5795 78.4006 45.5795ZM84.7607 45.5795C84.2521 45.5795 83.8515 45.4332 83.5589 45.1406C83.2733 44.841 83.1305 44.43 83.1305 43.9075V41.1382H82.19V40.25H83.1305V38.8915L84.28 38.5466H84.3218V40.25H85.8266V41.1382H84.3218V43.7507C84.3218 44.0642 84.388 44.2976 84.5203 44.4509C84.6597 44.5972 84.8722 44.6703 85.1578 44.6703C85.4643 44.6703 85.7151 44.6285 85.9102 44.5449L85.9729 45.3809C85.6873 45.5133 85.2832 45.5795 84.7607 45.5795ZM87.8983 39.5394C87.6614 39.5394 87.4699 39.4767 87.3236 39.3513C87.1842 39.2189 87.1146 39.0447 87.1146 38.8288C87.1146 38.6058 87.1842 38.4317 87.3236 38.3063C87.4699 38.1739 87.6614 38.1077 87.8983 38.1077C88.1352 38.1077 88.3233 38.1739 88.4626 38.3063C88.6089 38.4317 88.6821 38.6058 88.6821 38.8288C88.6821 39.0447 88.6089 39.2189 88.4626 39.3513C88.3233 39.4767 88.1352 39.5394 87.8983 39.5394ZM87.3027 40.25H88.494V45.475H87.3027V40.25ZM92.472 45.5795C91.6499 45.5795 91.002 45.3391 90.5283 44.8584C90.0615 44.3708 89.8281 43.7054 89.8281 42.8625C89.8281 42.0195 90.0615 41.3577 90.5283 40.877C91.002 40.3893 91.6499 40.1455 92.472 40.1455C93.294 40.1455 93.9385 40.3893 94.4052 40.877C94.879 41.3577 95.1158 42.0195 95.1158 42.8625C95.1158 43.7054 94.879 44.3708 94.4052 44.8584C93.9385 45.3391 93.294 45.5795 92.472 45.5795ZM92.472 44.6912C92.9248 44.6912 93.2801 44.531 93.5379 44.2105C93.7956 43.8831 93.9245 43.4337 93.9245 42.8625C93.9245 42.2912 93.7956 41.8453 93.5379 41.5249C93.2801 41.1974 92.9248 41.0337 92.472 41.0337C92.0191 41.0337 91.6638 41.1974 91.4061 41.5249C91.1483 41.8453 91.0194 42.2912 91.0194 42.8625C91.0194 43.4337 91.1483 43.8831 91.4061 44.2105C91.6638 44.531 92.0191 44.6912 92.472 44.6912ZM96.2159 41.6085C96.2159 40.9606 96.2019 40.5077 96.1741 40.25H97.2818C97.3166 40.5774 97.334 40.8839 97.334 41.1696H97.3549C97.4873 40.8561 97.7137 40.6088 98.0342 40.4276C98.3546 40.2395 98.7099 40.1455 99.1001 40.1455C99.7062 40.1455 100.162 40.3475 100.469 40.7516C100.776 41.1487 100.929 41.7408 100.929 42.5281V45.475H99.7375V42.5176C99.7375 42.03 99.6574 41.6712 99.4972 41.4413C99.3439 41.2114 99.0966 41.0964 98.7552 41.0964C98.3511 41.0964 98.0237 41.2392 97.7729 41.5249C97.5221 41.8035 97.3967 42.1658 97.3967 42.6117V45.475H96.2159V41.6085ZM103.882 45.5795C103.45 45.5795 103.067 45.4924 102.732 45.3182C102.398 45.1441 102.161 44.9107 102.022 44.6181L102.774 44.106C102.893 44.2872 103.049 44.43 103.244 44.5345C103.446 44.639 103.659 44.6912 103.882 44.6912C104.133 44.6912 104.342 44.625 104.509 44.4927C104.676 44.3533 104.76 44.1757 104.76 43.9597C104.76 43.7995 104.697 43.6671 104.572 43.5626C104.453 43.4581 104.206 43.3327 103.83 43.1864C103.21 42.9496 102.771 42.7092 102.513 42.4654C102.262 42.2215 102.137 41.9185 102.137 41.5562C102.137 41.1313 102.307 40.7899 102.649 40.5321C102.99 40.2744 103.443 40.1455 104.007 40.1455C104.39 40.1455 104.732 40.2186 105.031 40.3649C105.338 40.5112 105.578 40.7202 105.752 40.9919L105.052 41.5144C104.941 41.3612 104.798 41.2427 104.624 41.1591C104.45 41.0755 104.258 41.0337 104.049 41.0337C103.826 41.0337 103.649 41.079 103.516 41.1696C103.384 41.2532 103.318 41.3716 103.318 41.5249C103.318 41.6363 103.345 41.7304 103.401 41.807C103.457 41.8767 103.558 41.9498 103.704 42.0265C103.858 42.1031 104.087 42.2006 104.394 42.3191C104.979 42.549 105.383 42.7789 105.606 43.0088C105.829 43.2387 105.941 43.5382 105.941 43.9075C105.941 44.4091 105.752 44.8131 105.376 45.1197C105 45.4262 104.502 45.5795 103.882 45.5795ZM109.9 38.16H112.241C113.084 38.16 113.722 38.355 114.153 38.7452C114.592 39.1283 114.812 39.6961 114.812 40.4485C114.812 41.2497 114.585 41.8593 114.133 42.2773C113.687 42.6883 113.039 42.8938 112.189 42.8938H111.217V45.475H109.9V38.16ZM112.304 41.8279C112.701 41.8279 113.004 41.7165 113.213 41.4935C113.422 41.2636 113.526 40.9327 113.526 40.5008C113.526 40.0828 113.415 39.7658 113.192 39.5498C112.976 39.3339 112.656 39.2259 112.231 39.2259H111.217V41.8279H112.304ZM120.674 40.25L118.657 45.475H117.612L115.595 40.25H116.818L118.134 44.0329L119.451 40.25H120.674ZM123.712 45.5795C123.203 45.5795 122.803 45.4332 122.51 45.1406C122.224 44.841 122.082 44.43 122.082 43.9075V41.1382H121.141V40.25H122.082V38.8915L123.231 38.5466H123.273V40.25H124.778V41.1382H123.273V43.7507C123.273 44.0642 123.339 44.2976 123.471 44.4509C123.611 44.5972 123.823 44.6703 124.109 44.6703C124.415 44.6703 124.666 44.6285 124.861 44.5449L124.924 45.3809C124.638 45.5133 124.234 45.5795 123.712 45.5795ZM126.923 45.5795C126.686 45.5795 126.491 45.5028 126.337 45.3496C126.191 45.1893 126.118 44.9873 126.118 44.7435C126.118 44.5066 126.191 44.3115 126.337 44.1583C126.491 44.005 126.686 43.9284 126.923 43.9284C127.159 43.9284 127.351 44.005 127.497 44.1583C127.651 44.3046 127.727 44.4996 127.727 44.7435C127.727 44.9873 127.651 45.1893 127.497 45.3496C127.351 45.5028 127.159 45.5795 126.923 45.5795ZM132.029 38.16H133.356V44.4091H136.825V45.475H132.029V38.16ZM139.702 45.5795C139.194 45.5795 138.793 45.4332 138.501 45.1406C138.215 44.841 138.072 44.43 138.072 43.9075V41.1382H137.132V40.25H138.072V38.8915L139.222 38.5466H139.263V40.25H140.768V41.1382H139.263V43.7507C139.263 44.0642 139.33 44.2976 139.462 44.4509C139.601 44.5972 139.814 44.6703 140.099 44.6703C140.406 44.6703 140.657 44.6285 140.852 44.5449L140.915 45.3809C140.629 45.5133 140.225 45.5795 139.702 45.5795ZM143.969 45.5795C143.286 45.5795 142.749 45.3287 142.359 44.8271C141.969 44.3255 141.774 43.6393 141.774 42.7684C141.774 42.239 141.865 41.7792 142.046 41.389C142.227 40.9919 142.485 40.6854 142.819 40.4694C143.153 40.2535 143.547 40.1455 144 40.1455C144.62 40.1455 145.108 40.3754 145.463 40.8352H145.484V37.7211H146.665V44.106C146.665 44.8097 146.675 45.266 146.696 45.475H145.588C145.574 45.3356 145.567 45.0883 145.567 44.733H145.547C145.386 44.9838 145.16 45.1893 144.867 45.3496C144.582 45.5028 144.282 45.5795 143.969 45.5795ZM144.188 44.6599C144.578 44.6599 144.888 44.5449 145.118 44.315C145.355 44.0851 145.473 43.7751 145.473 43.385V42.3504C145.473 41.9673 145.351 41.6538 145.108 41.4099C144.871 41.1591 144.564 41.0337 144.188 41.0337C143.791 41.0337 143.484 41.187 143.268 41.4935C143.059 41.8001 142.955 42.232 142.955 42.7893C142.955 43.3815 143.063 43.8413 143.279 44.1687C143.495 44.4962 143.798 44.6599 144.188 44.6599ZM148.898 45.5795C148.661 45.5795 148.466 45.5028 148.313 45.3496C148.167 45.1893 148.094 44.9873 148.094 44.7435C148.094 44.5066 148.167 44.3115 148.313 44.1583C148.466 44.005 148.661 43.9284 148.898 43.9284C149.135 43.9284 149.327 44.005 149.473 44.1583C149.626 44.3046 149.703 44.4996 149.703 44.7435C149.703 44.9873 149.626 45.1893 149.473 45.3496C149.327 45.5028 149.135 45.5795 148.898 45.5795Z" fill="#323232"/>
</svg>
