<svg width="24" height="25" viewBox="0 0 24 25" fill="none" xmlns="http://www.w3.org/2000/svg">
<rect x="0.375" y="0.849976" width="23.25" height="23.25" rx="11.625" stroke="#1C283E" stroke-width="0.75"/>
<path d="M7.5 8.72498H11.25C11.4489 8.72498 11.6397 8.80399 11.7803 8.94465C11.921 9.0853 12 9.27606 12 9.47498C12 9.67389 11.921 9.86465 11.7803 10.0053C11.6397 10.146 11.4489 10.225 11.25 10.225H7.5C7.30109 10.225 7.11032 10.146 6.96967 10.0053C6.82902 9.86465 6.75 9.67389 6.75 9.47498C6.75 9.27606 6.82902 9.0853 6.96967 8.94465C7.11032 8.80399 7.30109 8.72498 7.5 8.72498ZM12.75 14.725H16.5C16.6989 14.725 16.8897 14.804 17.0303 14.9446C17.171 15.0853 17.25 15.2761 17.25 15.475C17.25 15.6739 17.171 15.8647 17.0303 16.0053C16.8897 16.146 16.6989 16.225 16.5 16.225H12.75C12.5511 16.225 12.3603 16.146 12.2197 16.0053C12.079 15.8647 12 15.6739 12 15.475C12 15.2761 12.079 15.0853 12.2197 14.9446C12.3603 14.804 12.5511 14.725 12.75 14.725ZM7.5 11.725H16.5C16.6989 11.725 16.8897 11.804 17.0303 11.9446C17.171 12.0853 17.25 12.2761 17.25 12.475C17.25 12.6739 17.171 12.8647 17.0303 13.0053C16.8897 13.146 16.6989 13.225 16.5 13.225H7.5C7.30109 13.225 7.11032 13.146 6.96967 13.0053C6.82902 12.8647 6.75 12.6739 6.75 12.475C6.75 12.2761 6.82902 12.0853 6.96967 11.9446C7.11032 11.804 7.30109 11.725 7.5 11.725Z" fill="#1C283E"/>
</svg>
